<svg width="34" height="34" viewBox="0 0 34 34" fill="none" xmlns="http://www.w3.org/2000/svg">
<path d="M33 7.08407C31.8232 7.60524 30.5591 7.95738 29.2301 8.11655C30.6013 7.29648 31.6272 6.00577 32.1164 4.48528C30.828 5.25011 29.418 5.78847 27.9476 6.07695C26.9588 5.02175 25.6491 4.32234 24.2218 4.08732C22.7945 3.8523 21.3296 4.09481 20.0543 4.7772C18.7791 5.4596 17.7649 6.5437 17.1693 7.86118C16.5737 9.17867 16.43 10.6558 16.7604 12.0633C14.1499 11.9323 11.5961 11.2542 9.26485 10.0729C6.93354 8.89163 4.87681 7.23361 3.22813 5.20646C2.66441 6.17837 2.34026 7.30522 2.34026 8.50532C2.33963 9.58568 2.60582 10.6495 3.11522 11.6024C3.62461 12.5552 4.36145 13.3677 5.26037 13.9677C4.21786 13.9346 3.19836 13.653 2.28671 13.1465V13.231C2.2866 14.7463 2.81102 16.2149 3.77098 17.3877C4.73094 18.5605 6.06731 19.3652 7.55333 19.6654C6.58624 19.927 5.57231 19.9655 4.58813 19.778C5.0074 21.0818 5.82409 22.2219 6.92389 23.0388C8.02368 23.8556 9.35151 24.3082 10.7215 24.3333C8.39587 26.158 5.52376 27.1478 2.56716 27.1434C2.04343 27.1436 1.52015 27.113 1 27.0519C4.00111 28.9804 7.49462 30.004 11.0625 30C23.1404 30 29.7431 20.002 29.7431 11.3309C29.7431 11.0492 29.736 10.7646 29.7233 10.4829C31.0076 9.55466 32.1162 8.40516 32.9972 7.0883L33 7.08407Z" fill="#F8F8F8"/>
</svg>
