<svg width="34" height="34" viewBox="0 0 34 34" fill="none" xmlns="http://www.w3.org/2000/svg">
<path fill-rule="evenodd" clip-rule="evenodd" d="M10.1098 1.093C11.7626 1.01691 12.2896 1 16.5 1C20.7104 1 21.2374 1.01832 22.8888 1.093C24.5403 1.16768 25.6675 1.43118 26.6539 1.81305C27.6868 2.20336 28.6238 2.8135 29.3988 3.60259C30.1879 4.37618 30.7966 5.31182 31.1855 6.34609C31.5688 7.33245 31.8309 8.45973 31.907 10.1084C31.9831 11.764 32 12.291 32 16.5C32 20.7104 31.9817 21.2374 31.907 22.8902C31.8323 24.5389 31.5688 25.6661 31.1855 26.6525C30.7966 27.6869 30.1869 28.6241 29.3988 29.3988C28.6238 30.1879 27.6868 30.7966 26.6539 31.1855C25.6675 31.5688 24.5403 31.8309 22.8916 31.907C21.2374 31.9831 20.7104 32 16.5 32C12.2896 32 11.7626 31.9817 10.1098 31.907C8.46114 31.8323 7.33386 31.5688 6.3475 31.1855C5.31312 30.7966 4.37593 30.1869 3.60118 29.3988C2.81263 28.6248 2.2024 27.688 1.81305 26.6539C1.43118 25.6675 1.16909 24.5403 1.093 22.8916C1.01691 21.236 1 20.709 1 16.5C1 12.2896 1.01832 11.7626 1.093 10.1112C1.16768 8.45973 1.43118 7.33245 1.81305 6.34609C2.20297 5.31193 2.81367 4.37521 3.60259 3.60118C4.37624 2.8128 5.31248 2.20258 6.34609 1.81305C7.33245 1.43118 8.45973 1.16909 10.1084 1.093H10.1098ZM22.7634 3.883C21.1289 3.80832 20.6385 3.79282 16.5 3.79282C12.3615 3.79282 11.8711 3.80832 10.2366 3.883C8.72464 3.95205 7.90455 4.20427 7.35782 4.41705C6.63495 4.69886 6.11782 5.03282 5.57532 5.57532C5.06106 6.07562 4.6653 6.68467 4.41705 7.35782C4.20427 7.90455 3.95205 8.72464 3.883 10.2366C3.80832 11.8711 3.79282 12.3615 3.79282 16.5C3.79282 20.6385 3.80832 21.1289 3.883 22.7634C3.95205 24.2754 4.20427 25.0955 4.41705 25.6422C4.66505 26.3143 5.061 26.9245 5.57532 27.4247C6.07555 27.939 6.68568 28.335 7.35782 28.583C7.90455 28.7957 8.72464 29.048 10.2366 29.117C11.8711 29.1917 12.3601 29.2072 16.5 29.2072C20.6399 29.2072 21.1289 29.1917 22.7634 29.117C24.2754 29.048 25.0955 28.7957 25.6422 28.583C26.365 28.3011 26.8822 27.9672 27.4247 27.4247C27.939 26.9245 28.335 26.3143 28.583 25.6422C28.7957 25.0955 29.048 24.2754 29.117 22.7634C29.1917 21.1289 29.2072 20.6385 29.2072 16.5C29.2072 12.3615 29.1917 11.8711 29.117 10.2366C29.048 8.72464 28.7957 7.90455 28.583 7.35782C28.3011 6.63495 27.9672 6.11782 27.4247 5.57532C26.9244 5.0611 26.3153 4.66534 25.6422 4.41705C25.0955 4.20427 24.2754 3.95205 22.7634 3.883ZM14.5202 21.2782C15.6259 21.7385 16.857 21.8006 18.0034 21.454C19.1498 21.1073 20.1402 20.3735 20.8056 19.3777C21.471 18.3819 21.7701 17.186 21.6517 15.9943C21.5333 14.8025 21.0049 13.6888 20.1566 12.8434C19.6158 12.303 18.962 11.8892 18.2421 11.6318C17.5222 11.3744 16.7542 11.2798 15.9934 11.3549C15.2326 11.4299 14.4979 11.6727 13.8422 12.0658C13.1865 12.4588 12.626 12.9924 12.2013 13.6281C11.7765 14.2637 11.498 14.9856 11.3857 15.7419C11.2735 16.4981 11.3303 17.2698 11.552 18.0014C11.7738 18.733 12.155 19.4064 12.6683 19.973C13.1815 20.5396 13.814 20.9854 14.5202 21.2782ZM10.8665 10.8665C11.6063 10.1266 12.4845 9.5398 13.4511 9.13942C14.4178 8.73904 15.4538 8.53296 16.5 8.53296C17.5462 8.53296 18.5822 8.73904 19.5489 9.13942C20.5155 9.5398 21.3937 10.1266 22.1335 10.8665C22.8734 11.6063 23.4602 12.4845 23.8606 13.4511C24.261 14.4178 24.467 15.4538 24.467 16.5C24.467 17.5462 24.261 18.5822 23.8606 19.5489C23.4602 20.5155 22.8734 21.3937 22.1335 22.1335C20.6394 23.6277 18.613 24.467 16.5 24.467C14.387 24.467 12.3606 23.6277 10.8665 22.1335C9.37234 20.6394 8.53296 18.613 8.53296 16.5C8.53296 14.387 9.37234 12.3606 10.8665 10.8665ZM26.234 9.71945C26.4173 9.54652 26.5641 9.33855 26.6656 9.10787C26.7671 8.87719 26.8213 8.62849 26.825 8.37649C26.8287 8.12449 26.7817 7.87432 26.687 7.64078C26.5923 7.40724 26.4516 7.19508 26.2734 7.01687C26.0952 6.83866 25.883 6.69802 25.6495 6.60327C25.416 6.50853 25.1658 6.4616 24.9138 6.46528C24.6618 6.46895 24.4131 6.52315 24.1824 6.62466C23.9517 6.72618 23.7438 6.87294 23.5708 7.05627C23.2345 7.41281 23.0503 7.8864 23.0575 8.37649C23.0646 8.86659 23.2625 9.3346 23.6091 9.68119C23.9557 10.0278 24.4237 10.2256 24.9138 10.2328C25.4039 10.2399 25.8775 10.0558 26.234 9.71945Z" fill="#F8F8F8"/>
</svg>
