<svg width="108" height="108" viewBox="0 0 108 108" fill="none" xmlns="http://www.w3.org/2000/svg">
<g filter="url(#filter0_d_92_35)">
<rect x="4" width="100" height="100" rx="16" fill="#F2785C"/>
<path d="M77.9305 70.9545C77.9305 71.497 77.7174 72.0173 77.3379 72.4009C76.9585 72.7845 76.4439 73 75.9074 73H39.4904C38.9539 73 38.4393 72.7845 38.0598 72.4009C37.6804 72.0173 37.4673 71.497 37.4673 70.9545C37.4673 70.4121 37.6804 69.8918 38.0598 69.5082C38.4393 69.1246 38.9539 68.9091 39.4904 68.9091H75.9074C76.4439 68.9091 76.9585 69.1246 77.3379 69.5082C77.7174 69.8918 77.9305 70.4121 77.9305 70.9545ZM84 50.5V56.6364C84 57.1789 83.7868 57.6991 83.4074 58.0827C83.028 58.4663 82.5134 58.6818 81.9768 58.6818H37.4167C35.24 58.6894 33.1194 57.9834 31.3731 56.6696C29.6268 55.3558 28.3488 53.5051 27.7308 51.3949L24.165 39.4034C23.9879 38.7898 23.9528 38.1431 24.0624 37.5136C24.1721 36.884 24.4235 36.2884 24.7972 35.7728C25.1794 35.2642 25.6727 34.8518 26.2387 34.5679C26.8046 34.2841 27.4278 34.1364 28.0596 34.1364H32.4094C32.7047 34.137 32.9963 34.2038 33.263 34.332C33.5298 34.4603 33.7651 34.6467 33.952 34.8779L38.403 40.2727H42.7528L40.4767 33.3949C40.2718 32.7789 40.215 32.1225 40.3111 31.4799C40.4071 30.8373 40.6531 30.2271 41.0288 29.6998C41.4046 29.1725 41.8991 28.7432 42.4716 28.4477C43.0441 28.1521 43.6779 27.9986 44.3207 28H48.5947C48.8756 27.9985 49.1537 28.057 49.4108 28.1715C49.6679 28.2861 49.8983 28.4542 50.0867 28.6648L60.6072 40.2727H73.8842C76.5671 40.2727 79.1401 41.3503 81.0372 43.2682C82.9342 45.1862 84 47.7876 84 50.5ZM79.9537 50.5C79.947 48.8746 79.3054 47.3177 78.1686 46.1684C77.0318 45.0191 75.4919 44.3704 73.8842 44.3637H59.7221C59.4411 44.3651 59.163 44.3067 58.9059 44.1922C58.6488 44.0776 58.4185 43.9095 58.23 43.6989L47.7095 32.0909H44.3207L47.4819 41.679C47.5809 41.9865 47.6073 42.3132 47.559 42.6328C47.5107 42.9525 47.389 43.2563 47.2037 43.5199C47.0169 43.7837 46.77 43.9981 46.4838 44.1449C46.1977 44.2918 45.8808 44.3668 45.5599 44.3637H37.4673C37.1719 44.363 36.8804 44.2962 36.6136 44.168C36.3469 44.0398 36.1115 43.8534 35.9246 43.6222L31.4737 38.2273H28.0343L31.6001 50.2188C31.9719 51.4853 32.7396 52.5959 33.7883 53.3841C34.8369 54.1723 36.11 54.5958 37.4167 54.5909H79.9537V50.5Z" fill="white"/>
</g>
<defs>
<filter id="filter0_d_92_35" x="0" y="0" width="108" height="108" filterUnits="userSpaceOnUse" color-interpolation-filters="sRGB">
<feFlood flood-opacity="0" result="BackgroundImageFix"/>
<feColorMatrix in="SourceAlpha" type="matrix" values="0 0 0 0 0 0 0 0 0 0 0 0 0 0 0 0 0 0 127 0" result="hardAlpha"/>
<feOffset dy="4"/>
<feGaussianBlur stdDeviation="2"/>
<feComposite in2="hardAlpha" operator="out"/>
<feColorMatrix type="matrix" values="0 0 0 0 0 0 0 0 0 0 0 0 0 0 0 0 0 0 0.25 0"/>
<feBlend mode="normal" in2="BackgroundImageFix" result="effect1_dropShadow_92_35"/>
<feBlend mode="normal" in="SourceGraphic" in2="effect1_dropShadow_92_35" result="shape"/>
</filter>
</defs>
</svg>
